<svg width="126" height="74" viewBox="0 0 126 74" fill="none" xmlns="http://www.w3.org/2000/svg">
<path d="M125.67 71.4399C121.11 72.5999 118.29 71.4899 115.76 67.6899C110.08 59.1799 103.81 51.0599 97.76 42.7899C96.98 41.7199 96.17 40.6699 95.16 39.3399C88 48.9999 80.85 58.1999 74.14 67.7699C71.74 71.1899 69.22 72.6799 64.74 71.4699L91.66 35.3399L66.6 2.70991C70.91 1.86991 73.89 2.29991 76.53 6.15991C82.36 14.6799 88.79 22.7899 95.2 31.3699C101.65 22.8199 108 14.6999 114 6.25991C116.41 2.83991 119 1.53991 123.33 2.79991C120.05 7.14991 116.84 11.4299 113.61 15.6799C109.25 21.4099 104.97 27.2099 100.45 32.8199C98.84 34.8199 99.1 36.1199 100.54 38.0099C108.9 48.9999 117.16 60.0999 125.67 71.4399ZM0.330049 34.7399C1.05005 31.1299 1.53005 27.4499 2.53005 23.9099C8.53005 2.47991 33.13 -6.43009 50.03 6.84991C59.93 14.6399 62.3901 25.6199 61.9001 37.9999H6.10005C5.26005 60.2099 21.2501 73.6199 41.6301 66.7799C48.7801 64.3799 52.99 58.7799 55.1 51.7799C56.17 48.2699 57.9401 47.7199 61.2401 48.7199C59.5501 57.4799 55.7201 64.7999 47.7201 69.3799C35.7201 76.2399 18.59 74.0199 9.58005 64.4899C4.26005 58.8899 2.00005 51.9199 1.00005 44.3899C0.850049 43.1899 0.540049 42.0099 0.300049 40.8199C0.320049 38.7932 0.330049 36.7666 0.330049 34.7399ZM6.20005 33.2499H56.6301C56.3001 17.1899 46.3001 5.77991 32.6301 5.67991C17.6301 5.55991 6.85005 16.6999 6.20005 33.2499Z" fill="white"/>
</svg>
