<svg width="50" height="50" viewBox="0 0 50 50" fill="none" xmlns="http://www.w3.org/2000/svg">
<path d="M5.69913 7C4.93613 7 4.45413 7.81933 4.82413 8.48633L13.7304 24.5137C13.8984 24.8157 13.8984 25.1824 13.7304 25.4844L4.82608 41.5137C4.45608 42.1807 4.93713 43 5.69913 43H7.99991H11.412C11.775 43 12.1081 42.8033 12.2851 42.4863L21.7304 25.4844C21.8984 25.1824 21.8984 24.8157 21.7304 24.5137L12.2851 7.51367C12.1091 7.19667 11.775 7 11.412 7H7.99991H5.69913ZM17.0019 7C16.2389 7 15.7559 7.81933 16.1269 8.48633L25.0312 24.5156C25.1992 24.8176 25.1992 25.1843 25.0312 25.4863L16.1269 41.5156C15.7569 42.1816 16.2399 43 17.0019 43H19.3007H22.7128C23.0758 43 23.4118 42.8033 23.5878 42.4863L29.4355 31.957L35.7069 42.5117C35.8889 42.8147 36.2153 43 36.5683 43H39.9999H42.2714C43.0404 43 43.5226 42.168 43.1386 41.502L23.5898 7.50195C23.4118 7.19095 23.0806 7 22.7226 7H22.7128H19.3007H17.0019ZM34.2421 18C33.4801 18 32.999 18.8193 33.369 19.4863L35.5917 23.4863C35.7677 23.8033 36.1018 24 36.4648 24H46.9999C47.5519 24 47.9999 23.552 47.9999 23V19C47.9999 18.448 47.5519 18 46.9999 18H34.2421ZM39.7987 28C39.0367 28 38.5537 28.8193 38.9237 29.4863L41.1464 33.4863C41.3234 33.8033 41.6564 34 42.0194 34H46.9999C47.5519 34 47.9999 33.552 47.9999 33V29C47.9999 28.448 47.5519 28 46.9999 28H39.7987Z" fill="#18203B"/>
</svg>
