<svg width="50" height="50" viewBox="0 0 50 50" fill="none" xmlns="http://www.w3.org/2000/svg">
<path d="M6 4C4.90694 4 4 4.90694 4 6V44C4 45.0931 4.90694 46 6 46H44C45.0931 46 46 45.0931 46 44V6C46 4.90694 45.0931 4 44 4H6ZM6 6H44V44H6V6ZM18.5859 14C17.1459 14 15.994 14.16 15.002 14.416L15 36H17.4648V26.8301C17.8168 26.8611 18.1367 26.8613 18.5527 26.8613C20.4727 26.8613 22.4886 26.0629 23.6406 24.4629C24.4736 23.3749 24.9512 22.0309 24.9512 20.0469C24.9512 18.1599 24.4078 16.5904 23.3848 15.5664C22.2648 14.4784 20.5689 14 18.5859 14ZM18.9766 15.6406C21.7276 15.6406 22.623 17.6221 22.623 19.8301C22.623 22.8701 20.9908 24.4707 18.5918 24.4707C18.1758 24.4707 17.8876 24.4392 17.5996 24.4082V15.8008C17.9196 15.7038 18.4006 15.6406 18.9766 15.6406ZM31.7168 20C29.2258 20 27.3008 21.7686 27.3008 24.3066C27.3008 26.0736 28.4275 27.4232 30.5195 28.7402C32.1455 29.7682 32.5762 30.604 32.5762 31.793C32.5762 33.174 31.6487 34.041 30.2207 34.041C29.1907 34.041 28.1949 33.5913 27.6309 33.2383L27 35.0996C27.697 35.6456 28.9923 36 30.1543 36C32.8103 36 35 34.49 35 31.373C35 29.221 33.5406 27.7742 31.6836 26.6172C30.0896 25.5902 29.6914 24.9792 29.6914 23.9512C29.6914 22.9242 30.387 21.9609 31.748 21.9609C32.611 21.9609 33.2763 22.25 33.9062 22.668L34.5703 20.8027C33.9063 20.3857 32.9788 20 31.7168 20Z" fill="black"/>
</svg>
