<svg width="800" height="800" viewBox="0 0 800 800" fill="none" xmlns="http://www.w3.org/2000/svg">
<path d="M727.441 472.431C720.124 463.956 707.625 466.273 697.961 468.194C674.732 472.339 649.459 477.156 626.961 467.493C667.141 404.083 698.754 334.852 716.435 261.779C722.868 234.007 727.837 205.594 726.892 176.999C726.191 160.995 723.966 143.953 714.179 130.692C689.974 98.7744 654.886 75.5141 616.2 65.1187C567.881 52.0101 516.056 55.9122 468.53 70.6061C464.597 71.3987 460.726 69.6307 456.885 69.1427C413.748 60.3935 366.191 63.8381 328.786 88.8056C283.881 72.6485 235.623 62.8932 187.822 67.8928C152.277 71.5814 116.579 88.1045 96.184 118.376C70.3935 156.147 66.8877 204.375 71.0032 248.639C79.2952 307.415 93.6232 365.276 111.853 421.704C123.865 456.884 137.095 492.338 158.465 523.067C169.318 538.157 183.737 553.369 203.156 555.747C220.411 557.851 236.019 547.15 246.598 534.468C264.889 512.58 283.698 491.088 303.209 470.297C315.952 476.547 329.792 480.144 343.937 481.211C336.285 490.295 329.975 502.154 317.781 505.721C301.349 512.062 282.113 511.208 267.633 522.152C259.28 528.128 258.883 541.145 266.383 548.004C279.949 561.173 299.947 564.009 317.994 565.533C343.571 567.484 369.423 558.887 388.842 542.12C388.722 582.787 388.905 623.577 393.475 664.03C395.762 687.717 405.974 711.313 423.991 727.257C440.971 742.072 465.177 745.152 486.729 741.402C507.886 737.378 529.622 731.037 546.145 716.587C563.705 701.1 571.204 677.718 574.679 655.281C580.99 615.071 585.776 574.678 590.349 534.286C635.558 541.907 686.712 533.249 720.49 500.234C727.715 493.435 734.574 481.668 727.441 472.431ZM627.114 90.0253C654.246 100.329 678.359 118.224 696.468 140.875C705.095 151.697 706.192 166.238 706.741 179.53C707.135 211.234 700.736 242.543 692.596 273.028C677.018 329.456 653.362 383.537 623.639 433.898C620.712 438.867 617.511 443.653 613.975 448.196C613.7 446.824 613.152 444.019 612.877 442.617C616.566 432.923 621.962 423.777 624.065 413.473C631.503 384.421 625.223 354.515 622.541 325.279C619.737 297.69 629.156 270.833 628.912 243.305C629.979 229.83 624.644 217.088 619.462 204.985C600.714 163.068 570.899 125.784 532.64 100.177C523.312 93.7749 512.886 89.2936 503.588 82.8613C544.255 74.1425 587.91 75.2705 627.114 90.0253ZM602.329 325.34C604.707 357.99 614.188 393.048 598.793 424.021C578.154 382.957 551.48 343.753 542.182 298.026C539.56 283.484 538.889 265.071 551.815 254.95C568.216 243.305 589.647 245.927 608.609 247.085C607.786 273.272 599.708 298.971 602.329 325.34ZM233.367 518.769C225.959 527.488 215.96 537.883 203.339 535.292C188.585 531.024 179.195 517.549 170.964 505.447C148.74 469.901 135.357 429.752 123.072 389.908C109.323 342.747 97.7387 294.825 91.0625 246.109C87.7396 209.039 89.8126 169.287 108.774 136.271C122.98 111.274 149.472 95.3297 177.305 90.1168C221.874 81.5505 267.572 90.6368 310.342 103.683C291.472 124.413 276.778 148.831 268.212 175.567C256.536 211.265 251.201 249.249 254.006 286.777C255.621 313.207 254.92 339.76 251.232 365.977C246.598 400.212 260.347 435.422 285.771 458.53C268.456 478.772 250.134 498.039 233.367 518.769ZM272.388 396.127C268.029 376.738 273.73 357.228 274.37 337.809C275.864 315.829 274.309 293.819 273.882 271.839C294.429 258.547 318.451 248.152 343.358 249.585C356.253 250.133 368.142 259.249 371.251 271.961C382.561 316.987 386.067 367.105 364.392 409.754C356.832 426.216 350.705 443.257 345.431 460.542C309.397 460.908 278.76 430.423 272.388 396.127ZM384.513 516.665C361.893 547.303 316.622 553.156 283.912 536.481C300.038 529.012 318.909 529.591 334.487 520.385C349.546 512.276 355.521 494.442 369.606 485.266C384.94 483.101 396.097 505.904 384.513 516.665ZM578.521 480.876C569.924 494.716 572.942 511.605 570.838 526.969C565.899 570.045 561.052 613.181 554.041 655.983C550.718 676.499 541.999 698.296 522.641 708.509C502.795 718.599 479.748 724.94 457.433 721.495C436.246 717.776 422.894 698.022 416.888 678.786C412.498 662.659 412.041 645.801 410.791 629.186C408.657 589.098 408.626 548.919 409.663 508.8C410.547 493.131 402.499 476.821 388.506 469.2C381.739 465.389 373.812 464.871 366.252 464.261C372.197 434.782 390.152 409.327 396.31 379.878C404.298 343.448 399.877 305.525 391.707 269.552C387.713 251.597 374.056 235.714 355.887 231.354C327.902 224.312 299.672 235.257 274.644 246.963C277.814 206.296 288.698 164.653 313.604 131.637C331.926 107.066 360.338 90.6653 390.671 86.7327C440.727 80.3613 493.284 94.1406 533.067 125.449C565.93 151.422 591.903 186.602 605.896 226.172C582.636 225.349 556.266 224.404 537.457 240.561C520.385 254.95 518.19 279.49 522.031 300.098C530.933 349.119 559.863 390.792 581.203 434.873C586.873 445.208 594.494 454.232 601.75 463.499C593.123 467.858 583.489 472.035 578.581 480.906L578.521 480.876ZM638.393 515.537C623.029 517.367 607.055 517.915 592.239 512.824C592.302 504.441 591.844 494.503 598.58 488.253C603.915 484.321 611.505 480.693 617.663 484.991C643.881 498.801 674.366 492.064 702.26 488.68C685.219 505.264 661.623 513.007 638.393 515.537ZM557.852 261.078C552.395 265.559 558.28 272.266 562.973 274.369C574.344 281.045 589.922 271.717 590.288 258.73C580.014 253.944 567.15 254.432 557.852 261.078ZM356.588 281.808C361.436 279.064 366.557 271.534 360.948 266.992C352.961 260.498 341.346 259.249 331.621 261.87C328.481 262.968 325.189 265.102 325.829 268.943C328.085 281.99 345.583 289.917 356.588 281.808Z" fill="white"/>
</svg>
