<svg width="24" height="26" viewBox="0 0 24 26" fill="none" xmlns="http://www.w3.org/2000/svg">
<g clip-path="url(#clip0_135_487)">
<path d="M22.0689 10.075C21.8419 9.75605 21.5364 9.50115 21.1819 9.33498C20.8265 9.16815 20.4342 9.09526 20.0426 9.12327C19.6509 9.15128 19.273 9.27926 18.9449 9.49498C18.6184 9.71006 18.3531 10.006 18.1749 10.354C17.9997 10.7276 17.9433 11.146 18.0134 11.5526C18.0835 11.9593 18.2767 12.3346 18.5669 12.628C19.3616 12.6907 20.1525 12.4672 20.7969 11.998C21.4387 11.5313 21.8911 10.8483 22.0689 10.075ZM15.2999 1.29998L13.8499 0.511983L7.53992 3.99298L8.04292 4.26298L8.99992 4.76098L10.7319 3.80698L15.3009 1.28398L15.2999 1.29998ZM15.8839 1.05998C15.9212 1.06926 15.9554 1.08791 15.9834 1.11417C16.0114 1.14042 16.0323 1.17341 16.0439 1.20998L18.1579 7.39198C18.1798 7.44099 18.1815 7.49661 18.1628 7.5469C18.1441 7.59719 18.1065 7.63815 18.0579 7.66098C17.2533 8.09764 16.6198 8.79322 16.2599 9.63498C15.9017 10.4744 15.84 11.4108 16.0849 12.29C16.3789 13.2488 16.9999 14.0741 17.8399 14.622C18.6819 15.172 19.6919 15.412 20.6939 15.302C20.7487 15.2987 20.8032 15.3123 20.85 15.3409C20.8968 15.3695 20.9338 15.4118 20.9559 15.462L23.1399 21.807C23.1539 21.8581 23.1517 21.9123 23.1336 21.962C23.1155 22.0118 23.0825 22.0548 23.0389 22.085L16.3269 25.975C16.295 25.9885 16.2606 25.9953 16.2259 25.995C16.1639 26.0064 16.0999 25.9958 16.0449 25.965L13.6899 24.5C13.6471 24.4778 13.6121 24.4428 13.5899 24.4L8.98992 13.917L1.98492 17.867C1.94296 17.8881 1.89695 17.8999 1.85001 17.9016C1.80308 17.9034 1.75632 17.8949 1.71292 17.877L0.120923 16.979C0.069306 16.9513 0.0302159 16.9049 0.0116319 16.8493C-0.00695219 16.7937 -0.003629 16.7332 0.0209231 16.68L6.82592 3.87998C6.85141 3.83635 6.88986 3.80174 6.93592 3.78098L13.7209 0.0299828C13.7581 0.0104501 13.7994 0.000244141 13.8414 0.000244141C13.8834 0.000244141 13.9248 0.0104501 13.9619 0.0299828L15.8849 1.05998H15.8839ZM7.46992 4.49898L7.13992 4.32998L0.579923 16.71L1.77692 17.378L7.43392 10.043C7.46169 10.0091 7.49713 9.98239 7.53731 9.965C7.57749 9.94761 7.62124 9.94006 7.66492 9.94298C7.70763 9.95068 7.74799 9.96813 7.78285 9.99397C7.81772 10.0198 7.84614 10.0534 7.86592 10.092L14.0259 24.158L15.6719 25.165L9.05992 6.00498L8.77892 5.20698L7.46092 4.48898L7.47092 4.49898H7.46992ZM17.6149 11.881C17.4643 11.3292 17.5066 10.7424 17.7349 10.218C17.9642 9.69106 18.3654 9.25745 18.8729 8.98798C19.3892 8.70228 19.9826 8.58712 20.5683 8.65896C21.154 8.7308 21.702 8.98597 22.1339 9.38798C22.3742 9.61674 22.5669 9.89081 22.7007 10.1944C22.8346 10.498 22.907 10.8251 22.9138 11.1568C22.9205 11.4885 22.8616 11.8183 22.7403 12.1271C22.6189 12.4359 22.4377 12.7176 22.2069 12.956L22.1339 13.029C21.6218 13.5114 20.9454 13.7808 20.2419 13.7827C19.5384 13.7845 18.8605 13.5187 18.3459 13.039C18.0075 12.7217 17.7558 12.323 17.6149 11.881Z" fill="white"/>
</g>
<defs>
<clipPath id="clip0_135_487">
<rect width="24" height="26" fill="white"/>
</clipPath>
</defs>
</svg>
