<svg width="20" height="20" viewBox="0 0 20 20" fill="none" xmlns="http://www.w3.org/2000/svg">
<g clip-path="url(#clip0_138_862)">
<mask id="mask0_138_862" style="mask-type:luminance" maskUnits="userSpaceOnUse" x="0" y="0" width="20" height="20">
<path d="M20 0H0V20H20V0Z" fill="white"/>
</mask>
<g mask="url(#mask0_138_862)">
<path d="M6.78347 5.70386C6.27742 5.70386 5.93397 5.75308 5.75537 5.80346V9.05607C5.9683 9.10415 6.2282 9.12017 6.5877 9.12017C7.91232 9.12017 8.72977 8.45043 8.72977 7.32158C8.72862 6.30948 8.02567 5.70386 6.78347 5.70386Z" fill="white"/>
<path d="M18.7761 0.00488281H1.22503C0.5484 0.00488281 0 0.55214 0 1.22648V18.7764C0 19.4519 0.5484 20.0003 1.22503 20.0003H18.7761C19.4516 20.0003 20 19.4519 20 18.7764V1.22762C20 0.55214 19.4516 0.00488281 18.7761 0.00488281ZM10.1826 9.87611C9.33425 10.6775 8.07373 11.037 6.60485 11.037C6.27625 11.037 5.98318 11.021 5.7542 10.9878V14.9285H3.28467V4.05662C4.0529 3.92727 5.13138 3.8288 6.65293 3.8288C8.18823 3.8288 9.28503 4.1219 10.0189 4.7115C10.7253 5.26793 11.1981 6.18383 11.1981 7.26233C11.1981 8.34081 10.8375 9.25328 10.1826 9.87611ZM13.9046 15.0911C12.8559 15.0911 11.9251 14.8644 11.3195 14.5358L11.7603 12.7543C12.2182 13.0303 13.1673 13.3577 13.9046 13.3577C14.6545 13.3577 14.966 13.0967 14.966 12.6868C14.966 12.2792 14.7209 12.0834 13.7902 11.772C12.1392 11.2168 11.5004 10.3169 11.5164 9.36891C11.5164 7.88286 12.7918 6.7517 14.7702 6.7517C15.7021 6.7517 16.5356 6.9658 17.0256 7.20966L16.5848 8.92698C16.2253 8.73006 15.5395 8.47018 14.8514 8.47018C14.2481 8.47018 13.9058 8.71518 13.9058 9.12391C13.9058 9.49943 14.2138 9.69521 15.1949 10.0398C16.7153 10.5619 17.3542 11.3313 17.3691 12.5059C17.3691 13.9954 16.1898 15.0911 13.9046 15.0911Z" fill="white"/>
</g>
</g>
<defs>
<clipPath id="clip0_138_862">
<rect width="20" height="20" fill="white"/>
</clipPath>
</defs>
</svg>
